<svg width="40" height="40" viewBox="0 0 40 40" fill="none" xmlns="http://www.w3.org/2000/svg">
<path fill-rule="evenodd" clip-rule="evenodd" d="M22.3573 21.1931C22.3696 22.7048 21.7122 23.4328 21.0162 24.204C20.3782 24.9106 19.6551 25.7111 19.6273 27.0386V28.7451H7.82506V27.6531C7.82534 25.572 5.9682 24.4337 4.32963 23.4294C2.91963 22.5654 1.58763 21.7491 1.58391 20.5511C1.57363 17.4788 1.5802 12.956 1.58391 11.1377C3.34648 11.2846 4.73591 12.7628 4.73591 14.5586V19.178C4.73591 19.6126 5.08734 19.9654 5.52191 19.9671H5.52506C5.95848 19.9671 6.31077 19.618 6.31448 19.1846C6.32648 17.7477 6.3202 14.1871 6.31477 11.046C6.30963 8.21542 6.30506 5.54199 6.31448 4.87713C6.31563 3.85942 6.70248 3.63199 6.98477 3.4657C7.65077 3.07399 8.37391 2.7397 9.13591 2.46542V12.5068C9.13591 12.9428 9.48934 13.296 9.92506 13.296C10.3611 13.296 10.7142 12.9428 10.7142 12.5068V1.99856C11.6285 1.78227 12.5796 1.64742 13.5453 1.5997L13.5442 12.5068C13.5442 12.9428 13.8976 13.296 14.3333 13.296C14.7691 13.296 15.1228 12.9428 15.1228 12.5071L15.1239 1.5997C16.0891 1.64742 17.0393 1.78227 17.9528 1.99799V12.5068C17.9528 12.9428 18.3059 13.296 18.7419 13.296C19.1776 13.296 19.5311 12.9428 19.5311 12.5068V2.46456C20.2942 2.73913 21.0179 3.0737 21.6848 3.4657C21.9671 3.63199 22.3536 3.85942 22.3553 4.88713C22.3645 5.54627 22.3453 19.7646 22.3573 21.1931ZM5.09161 37.4869H22.3553V30.3237H5.09161V37.4869ZM23.9339 4.87486C23.9308 2.95571 22.8802 2.33771 22.4848 2.10543C20.1762 0.747714 17.2819 0 14.3348 0C11.3876 0 8.49333 0.747714 6.18476 2.10543C5.78933 2.33771 4.73876 2.95571 4.7359 4.86486C4.72676 5.52229 4.73105 8.01114 4.7359 10.9134C3.83676 10.0671 2.62533 9.54772 1.29505 9.54743H0.796189C0.361046 9.54743 0.00790349 9.89971 0.00676063 10.3349C0.00647491 10.3974 -0.00752509 16.648 0.00561777 20.5563C0.0124749 22.6346 1.8679 23.772 3.50476 24.7751C4.91476 25.6394 6.24647 26.4557 6.24647 27.6531V28.7451H4.30247C3.86647 28.7451 3.51333 29.0986 3.51333 29.5343V38.276C3.51333 38.7117 3.86647 39.0651 4.30247 39.0651H23.1445C23.5802 39.0651 23.9339 38.7117 23.9339 38.276V29.5343C23.9339 29.0986 23.5802 28.7451 23.1445 28.7451H21.2059L21.2056 27.0554C21.2205 26.366 21.5702 25.9457 22.1876 25.2617C22.9742 24.3906 23.953 23.3063 23.9353 21.1803C23.9236 19.7591 23.943 5.53629 23.9339 4.87486Z" fill="#EE1C25"/>
<mask id="mask0" mask-type="alpha" maskUnits="userSpaceOnUse" x="26" y="8" width="14" height="32">
<path fill-rule="evenodd" clip-rule="evenodd" d="M26.3067 8.7417H39.062V39.0651H26.3067V8.7417Z" fill="white"/>
</mask>
<g mask="url(#mask0)">
<path fill-rule="evenodd" clip-rule="evenodd" d="M37.3132 34.0034C38.1001 33.1323 39.079 32.048 39.0612 29.9217C39.0495 28.5006 39.069 14.2777 39.0592 13.6166C39.057 11.698 38.0064 11.0797 37.6104 10.8468C35.3024 9.48941 32.4078 8.7417 29.4607 8.7417C28.6307 8.7417 27.7978 8.80027 26.985 8.91598C26.5535 8.97713 26.2532 9.37684 26.3147 9.80827C26.3761 10.24 26.7747 10.5403 27.2072 10.4786C27.6892 10.41 28.1792 10.366 28.6712 10.3417V20.1957C28.6712 20.6314 29.0247 20.9848 29.4607 20.9848C29.8964 20.9848 30.2495 20.6314 30.2495 20.1957V10.3414C31.215 10.3891 32.1652 10.5237 33.079 10.7397V20.1957C33.079 20.6314 33.4324 20.9848 33.8681 20.9848C34.3041 20.9848 34.6572 20.6314 34.6572 20.1957V11.2063C35.4201 11.4808 36.1435 11.8151 36.8101 12.2074C37.093 12.3734 37.4795 12.6011 37.481 13.6288C37.4904 14.288 37.4712 28.5063 37.483 29.9348C37.4955 31.4466 36.8381 32.1748 36.1418 32.9457C35.5041 33.6523 34.781 34.4528 34.753 35.7803V37.4868H27.0958C26.6601 37.4868 26.307 37.84 26.307 38.276C26.307 38.7117 26.6601 39.0651 27.0958 39.0651H37.0924C37.5281 39.0651 37.8812 38.7117 37.8812 38.276C37.8812 37.84 37.5281 37.4868 37.0924 37.4868H36.3312V35.7968C36.3458 35.1077 36.6958 34.6874 37.3132 34.0034Z" fill="#4D4D4D"/>
</g>
<path fill-rule="evenodd" clip-rule="evenodd" d="M18.7418 32.7213C18.089 32.7213 17.5578 33.2522 17.5578 33.905C17.5578 34.5579 18.089 35.089 18.7418 35.089C19.3947 35.089 19.9258 34.5579 19.9258 33.905C19.9258 33.2522 19.3947 32.7213 18.7418 32.7213Z" fill="#4D4D4D"/>
</svg>
