<svg width="37" height="38" viewBox="0 0 37 38" fill="none" xmlns="http://www.w3.org/2000/svg">
<path fill-rule="evenodd" clip-rule="evenodd" d="M9.1062 10.7388C8.34395 10.7388 7.72395 10.1188 7.72395 9.35632C7.72395 8.59407 8.34395 7.97382 9.1062 7.97382C9.86845 7.97382 10.4887 8.59407 10.4887 9.35632C10.4887 10.1188 9.86845 10.7388 9.1062 10.7388ZM9.10621 6.31506C7.42921 6.31506 6.06496 7.67931 6.06496 9.35631C6.06496 11.0333 7.42921 12.3978 9.10621 12.3978C10.7832 12.3978 12.1477 11.0333 12.1477 9.35631C12.1477 7.67931 10.7832 6.31506 9.10621 6.31506Z" fill="#EE1C25"/>
<path fill-rule="evenodd" clip-rule="evenodd" d="M16.5537 9.71218L15.0119 10.4077C14.7904 10.5077 14.6239 10.6999 14.5564 10.9334C14.4392 11.3389 14.2777 11.7297 14.0757 12.0952C13.9582 12.3079 13.9399 12.5619 14.026 12.7897L14.6239 14.3709L14.1207 14.8739L12.5394 14.2759C12.3122 14.1902 12.0584 14.2082 11.8452 14.3259C11.4797 14.5277 11.089 14.6894 10.6837 14.8064C10.4497 14.8737 10.2577 15.0404 10.1577 15.2622L9.4622 16.8037H8.75045L8.05495 15.2622C7.9547 15.0404 7.76245 14.8737 7.52895 14.8064C7.1237 14.6892 6.7327 14.5277 6.36745 14.3259C6.15445 14.2082 5.9007 14.1902 5.6732 14.2759L4.0917 14.8739L3.58845 14.3709L4.1867 12.7897C4.2727 12.5619 4.25445 12.3079 4.1367 12.0949C3.93495 11.7297 3.7732 11.3392 3.6562 10.9337C3.58895 10.6999 3.4222 10.5077 3.20045 10.4077L1.65895 9.71218V9.00043L3.20045 8.30519C3.4222 8.20494 3.58895 8.01268 3.6562 7.77893C3.7732 7.37344 3.93495 6.98269 4.1367 6.61768C4.25445 6.40469 4.2727 6.15068 4.1867 5.92294L3.58845 4.34169L4.0917 3.83844L5.6732 4.43644C5.9007 4.52269 6.1547 4.50444 6.3677 4.38669C6.73245 4.18519 7.1232 4.02344 7.52895 3.90619C7.7627 3.83869 7.9547 3.67219 8.05495 3.45044L8.75045 1.90894H9.4622L10.1577 3.45044C10.2575 3.67219 10.4497 3.83869 10.6834 3.90619C11.0892 4.02344 11.4799 4.18519 11.8449 4.38694C12.0584 4.50444 12.3122 4.52294 12.5394 4.43644L14.1207 3.83844L14.6239 4.34169L14.026 5.92294C13.9399 6.15068 13.9582 6.40469 14.0757 6.61768C14.2774 6.98269 14.4392 7.37369 14.5564 7.77919C14.6239 8.01294 14.7904 8.20518 15.0119 8.30519L16.5537 9.00043V9.71218ZM17.7242 7.70869L16.0312 6.94494C15.9385 6.67819 15.8305 6.41719 15.7082 6.16444L16.3652 4.42744C16.4805 4.12244 16.4065 3.77819 16.176 3.54769L14.915 2.28669C14.6842 2.05594 14.3402 1.98194 14.035 2.09744L12.2985 2.75419C12.0452 2.63194 11.7845 2.52419 11.5177 2.43144L10.754 0.738439C10.62 0.441189 10.324 0.249939 9.99795 0.249939H8.2147C7.8887 0.249939 7.5927 0.441189 7.4587 0.738439L6.6947 2.43144C6.42795 2.52419 6.1672 2.63194 5.9142 2.75419L4.17745 2.09744C3.8722 1.98194 3.52795 2.05594 3.2977 2.28669L2.0367 3.54769C1.80595 3.77819 1.73195 4.12244 1.84745 4.42744L2.5042 6.16444C2.3817 6.41719 2.27395 6.67819 2.18145 6.94494L0.488454 7.70869C0.190954 7.84269 -4.57764e-05 8.13869 -4.57764e-05 8.46469V10.2479C-4.57764e-05 10.5742 0.190954 10.8699 0.488454 11.0039L2.18145 11.7677C2.27395 12.0344 2.3817 12.2954 2.5042 12.5484L1.84745 14.2852C1.73195 14.5902 1.80595 14.9344 2.0367 15.1652L3.2977 16.4259C3.5282 16.6564 3.8722 16.7304 4.17745 16.6152L5.9142 15.9584C6.16745 16.0807 6.4282 16.1887 6.6947 16.2812L7.4587 17.9742C7.5927 18.2714 7.8887 18.4624 8.2147 18.4624H9.99795C10.324 18.4624 10.62 18.2714 10.754 17.9742L11.5177 16.2812C11.7842 16.1887 12.0452 16.0807 12.2982 15.9584L14.035 16.6152C14.3402 16.7304 14.6842 16.6564 14.915 16.4257L16.176 15.1649C16.4065 14.9344 16.4805 14.5902 16.3652 14.2852L15.7082 12.5484C15.8305 12.2954 15.9385 12.0344 16.0312 11.7677L17.7242 11.0039C18.0215 10.8699 18.2125 10.5742 18.2125 10.2479V8.46469C18.2125 8.13869 18.0215 7.84269 17.7242 7.70869Z" fill="#EE1C25"/>
<mask id="mask0" mask-type="alpha" maskUnits="userSpaceOnUse" x="9" y="20" width="6" height="17">
<path fill-rule="evenodd" clip-rule="evenodd" d="M9.33171 20.4901H14.1449V36.9303H9.33171V20.4901Z" fill="white"/>
</mask>
<g mask="url(#mask0)">
<path fill-rule="evenodd" clip-rule="evenodd" d="M14.1299 29.5563C14.1319 25.6861 12.5609 23.3746 11.0414 21.1393L10.8479 20.8543C10.5909 20.4751 10.0751 20.3761 9.69613 20.6328C9.31688 20.8898 9.21763 21.4056 9.47438 21.7848L9.66938 22.0718C11.1111 24.1928 12.4729 26.1963 12.4711 29.5568C12.4724 30.7256 12.5041 34.2573 12.4711 36.0858C12.4631 36.5438 12.8276 36.9218 13.2856 36.9301C13.2906 36.9303 13.2959 36.9303 13.3009 36.9303C13.7519 36.9303 14.1216 36.5686 14.1299 36.1158C14.1631 34.2648 14.1311 30.7181 14.1299 29.5563Z" fill="#808080"/>
</g>
<mask id="mask1" mask-type="alpha" maskUnits="userSpaceOnUse" x="17" y="0" width="20" height="37">
<path fill-rule="evenodd" clip-rule="evenodd" d="M17.0748 0.250122H36.6795V36.9301H17.0748V0.250122Z" fill="white"/>
</mask>
<g mask="url(#mask1)">
<path fill-rule="evenodd" clip-rule="evenodd" d="M36.3767 19.8386C34.6325 16.2859 33.5129 14.0004 33.2267 13.4089C33.1659 8.87062 32.1262 5.63262 30.0499 3.51412C27.8972 1.31762 24.5699 0.250122 19.8787 0.250122C19.1804 0.250122 18.4724 0.306122 17.7747 0.416622C17.3222 0.488372 17.0134 0.913122 17.0852 1.36562C17.1569 1.81787 17.5822 2.12662 18.0342 2.05512C18.6464 1.95812 19.2672 1.90887 19.8787 1.90887C24.1009 1.90887 27.0404 2.81387 28.8652 4.67537C30.6537 6.50037 31.5384 9.42162 31.5697 13.6044C31.5709 13.8056 31.5709 13.8056 32.8539 16.4244C33.5232 17.7904 34.3317 19.4374 34.8877 20.5696C34.9165 20.6286 34.9392 20.6799 34.9569 20.7241C34.0427 20.7316 32.4197 20.7239 32.4032 20.7236H32.3992C32.1799 20.7236 31.9697 20.8104 31.8142 20.9651C31.6577 21.1209 31.5697 21.3324 31.5697 21.5531V27.5101C31.5697 28.1809 31.0239 28.7264 30.3534 28.7264H23.3367C21.4567 28.7264 19.9269 27.1969 19.9269 25.3164V23.2646C19.9269 22.8066 19.5554 22.4351 19.0974 22.4351C18.6394 22.4351 18.2679 22.8066 18.2679 23.2646V25.3164C18.2679 28.1114 20.5419 30.3854 23.3367 30.3854H25.2329V36.1006C25.2329 36.5589 25.6044 36.9301 26.0624 36.9301C26.5207 36.9301 26.8919 36.5589 26.8919 36.1006V30.3854H30.3534C31.9389 30.3854 33.2287 29.0954 33.2287 27.5101V22.3854C33.7889 22.3866 34.5134 22.3871 35.0117 22.3826C35.8767 22.3749 36.2869 22.0029 36.4787 21.6921C36.7772 21.2081 36.743 20.5844 36.3767 19.8386Z" fill="#808080"/>
</g>
</svg>
