<svg width="32" height="32" viewBox="0 0 32 32" fill="none" xmlns="http://www.w3.org/2000/svg">
<path opacity="0.01" fill-rule="evenodd" clip-rule="evenodd" d="M16 32C24.8366 32 32 24.8366 32 16C32 7.16344 24.8366 0 16 0C7.16344 0 0 7.16344 0 16C0 24.8366 7.16344 32 16 32Z" fill="#EEEEEE"/>
<path fill-rule="evenodd" clip-rule="evenodd" d="M15.9878 4.30377C12.7321 4.30377 12.3238 4.31744 11.0453 4.37486C9.76929 4.43258 8.89791 4.63248 8.13514 4.92504C7.34714 5.22762 6.67852 5.63228 6.01206 6.2903C5.3456 6.94833 4.93575 7.60848 4.62929 8.38651C4.33298 9.13962 4.13021 9.99997 4.07206 11.2598C4.01391 12.5224 4.00006 12.9252 4.00006 16.1397C4.00006 19.3542 4.01391 19.7573 4.07206 21.0196C4.13021 22.2798 4.33298 23.1401 4.62929 23.8926C4.93575 24.6713 5.3456 25.3314 6.01206 25.9894C6.67852 26.6475 7.34714 27.0521 8.13514 27.3544C8.89791 27.647 9.76929 27.8472 11.0453 27.9049C12.3238 27.9623 12.7321 27.976 15.9878 27.976C19.2434 27.976 19.6518 27.9623 20.9302 27.9049C22.2062 27.8472 23.0776 27.647 23.8404 27.3544C24.6287 27.0521 25.297 26.6475 25.9634 25.9894C26.6299 25.3314 27.0398 24.6713 27.3462 23.8926C27.6425 23.1401 27.8453 22.2798 27.9034 21.0196C27.9619 19.7573 27.9754 19.3542 27.9754 16.1397C27.9754 12.9252 27.9619 12.5224 27.9034 11.2598C27.8453 9.99997 27.6425 9.13962 27.3462 8.38651C27.0398 7.60848 26.6299 6.94833 25.9634 6.2903C25.297 5.63228 24.6287 5.22762 23.8404 4.92504C23.0776 4.63248 22.2062 4.43258 20.9302 4.37486C19.6518 4.31744 19.2434 4.30377 15.9878 4.30377ZM15.9878 6.43643C19.1887 6.43643 19.5678 6.44858 20.8321 6.50539C22.0007 6.55795 22.6354 6.75086 23.0579 6.91309C23.6173 7.12757 24.0167 7.38428 24.4364 7.79835C24.8558 8.21243 25.1154 8.60676 25.333 9.15906C25.497 9.57618 25.6924 10.2029 25.7456 11.357C25.8034 12.605 25.8154 12.9796 25.8154 16.1397C25.8154 19.3001 25.8034 19.6747 25.7456 20.9224C25.6924 22.0765 25.497 22.7033 25.333 23.1204C25.1154 23.673 24.8558 24.0673 24.4364 24.4814C24.0167 24.8955 23.6173 25.1519 23.0579 25.3667C22.6354 25.5286 22.0007 25.7215 20.8321 25.7744C19.5681 25.8312 19.189 25.843 15.9878 25.843C12.7868 25.843 12.4078 25.8312 11.1438 25.7744C9.97483 25.7215 9.34037 25.5286 8.9176 25.3667C8.35821 25.1519 7.95883 24.8955 7.53945 24.4814C7.12006 24.0673 6.86006 23.673 6.64252 23.1204C6.47852 22.7033 6.28314 22.0765 6.22991 20.9224C6.17237 19.6747 6.16006 19.3001 6.16006 16.1397C6.16006 12.9796 6.17237 12.605 6.22991 11.357C6.28314 10.2029 6.47852 9.57618 6.64252 9.15906C6.86006 8.60676 7.12006 8.21243 7.53945 7.79835C7.95883 7.38428 8.35821 7.12757 8.9176 6.91309C9.34037 6.75086 9.97483 6.55795 11.1438 6.50539C12.4078 6.44858 12.7868 6.43643 15.9878 6.43643Z" fill="#808080"/>
<path fill-rule="evenodd" clip-rule="evenodd" d="M15.9877 20.0852C13.781 20.0852 11.992 18.3189 11.992 16.1398C11.992 13.9609 13.781 12.1944 15.9877 12.1944C18.1945 12.1944 19.9837 13.9609 19.9837 16.1398C19.9837 18.3189 18.1945 20.0852 15.9877 20.0852ZM15.9877 10.062C12.588 10.062 9.83203 12.7831 9.83203 16.1398C9.83203 19.4967 12.588 22.2179 15.9877 22.2179C19.3874 22.2179 22.1437 19.4967 22.1437 16.1398C22.1437 12.7831 19.3874 10.062 15.9877 10.062Z" fill="#808080"/>
<path fill-rule="evenodd" clip-rule="evenodd" d="M23.8255 9.82168C23.8255 10.6061 23.1815 11.2422 22.387 11.2422C21.5925 11.2422 20.9482 10.6061 20.9482 9.82168C20.9482 9.03728 21.5925 8.40143 22.387 8.40143C23.1815 8.40143 23.8255 9.03728 23.8255 9.82168Z" fill="#808080"/>
</svg>
