<svg width="36" height="35" viewBox="0 0 36 35" fill="none" xmlns="http://www.w3.org/2000/svg">
<mask id="mask0" mask-type="alpha" maskUnits="userSpaceOnUse" x="6" y="0" width="23" height="34">
<path fill-rule="evenodd" clip-rule="evenodd" d="M6.58282 0.333313H28.6282V33.7886H6.58282V0.333313Z" fill="white"/>
</mask>
<g mask="url(#mask0)">
<path fill-rule="evenodd" clip-rule="evenodd" d="M22.8432 19.3368C22.6355 19.4734 22.5108 19.7048 22.5108 19.9531V23.7068H12.7002V19.9531C12.7002 19.7048 12.5755 19.4731 12.3678 19.3368C9.66949 17.5618 8.05849 14.5784 8.05849 11.3558C8.05849 6.09144 12.3412 1.80878 17.6055 1.80878C22.8702 1.80878 27.1528 6.09144 27.1528 11.3558C27.1528 14.5784 25.5418 17.5618 22.8432 19.3368ZM22.5108 28.9421C22.5108 29.9821 21.6652 30.8278 20.6255 30.8278H14.5858C13.5462 30.8278 12.7005 29.9821 12.7005 28.9421V28.7428H19.0812C19.4885 28.7428 19.8188 28.4124 19.8188 28.0048C19.8188 27.5974 19.4885 27.2674 19.0812 27.2674H12.7005V25.1824H22.5108V28.9421ZM17.6055 0.33313C11.5278 0.33313 6.58282 5.2778 6.58282 11.3558C6.58282 14.9425 8.31049 18.2721 11.2248 20.3421L11.2252 28.9421C11.2252 30.7955 12.7325 32.3031 14.5858 32.3031H15.5178C15.8198 33.1665 16.6405 33.7888 17.6058 33.7888C18.5708 33.7888 19.3915 33.1665 19.6935 32.3031H20.6255C22.4788 32.3031 23.9865 30.7955 23.9865 28.9421L23.9862 20.3425C26.9005 18.2721 28.6282 14.9425 28.6282 11.3558C28.6282 5.2778 23.6835 0.33313 17.6055 0.33313Z" fill="#808080"/>
</g>
<path fill-rule="evenodd" clip-rule="evenodd" d="M17.6057 13.2401L15.1604 11.1224H20.051L17.6057 13.2401ZM22.0297 9.64709H13.1817C12.8734 9.64709 12.598 9.83843 12.4904 10.1271C12.3827 10.4154 12.4657 10.7408 12.6987 10.9424L16.868 14.5531V20.5108C16.868 20.9184 17.1984 21.2488 17.6057 21.2488C18.013 21.2488 18.3434 20.9184 18.3434 20.5108V14.5531L22.5127 10.9424C22.7454 10.7408 22.8287 10.4154 22.721 10.1271C22.6134 9.83843 22.3377 9.64709 22.0297 9.64709Z" fill="#EE1C25"/>
<path fill-rule="evenodd" clip-rule="evenodd" d="M5.50056 3.51532L3.36656 2.28299C3.0139 2.07932 2.56256 2.20032 2.35856 2.55299C2.1549 2.90599 2.2759 3.35699 2.62856 3.56099L4.7629 4.79299C4.8789 4.85999 5.0059 4.89199 5.1309 4.89199C5.3859 4.89199 5.6339 4.75965 5.77056 4.52299C5.97423 4.16999 5.85356 3.71899 5.50056 3.51532Z" fill="#EE1C25"/>
<path fill-rule="evenodd" clip-rule="evenodd" d="M3.9397 11.356C3.9397 10.9486 3.60936 10.6183 3.20203 10.6183H0.737697C0.330364 10.6183 3.05176e-05 10.9483 3.05176e-05 11.356C3.05176e-05 11.7633 0.330364 12.0936 0.737697 12.0936H3.20203C3.60936 12.0936 3.9397 11.7636 3.9397 11.356Z" fill="#EE1C25"/>
<path fill-rule="evenodd" clip-rule="evenodd" d="M4.76277 17.9189L2.62877 19.1509C2.27577 19.3546 2.15511 19.8059 2.35877 20.1586C2.49544 20.3956 2.74311 20.5279 2.99844 20.5279C3.12344 20.5279 3.25011 20.4956 3.36644 20.4286L5.50044 19.1966C5.85344 18.9929 5.97444 18.5419 5.77044 18.1889C5.56711 17.8362 5.11611 17.7152 4.76277 17.9189Z" fill="#EE1C25"/>
<path fill-rule="evenodd" clip-rule="evenodd" d="M32.5826 19.151L30.4486 17.919C30.0956 17.7154 29.6443 17.8364 29.4406 18.189C29.2369 18.5417 29.3579 18.993 29.7106 19.1967L31.8449 20.4287C31.9609 20.4957 32.0879 20.5277 32.2129 20.5277C32.4679 20.5277 32.7159 20.3954 32.8526 20.1587C33.0563 19.8057 32.9356 19.3547 32.5826 19.151Z" fill="#EE1C25"/>
<path fill-rule="evenodd" clip-rule="evenodd" d="M34.4735 10.6182H32.0092C31.6019 10.6182 31.2715 10.9485 31.2715 11.3558C31.2715 11.7635 31.6019 12.0938 32.0092 12.0938L34.4735 12.0935C34.8812 12.0935 35.2112 11.7635 35.2112 11.3558C35.2112 10.9485 34.8812 10.6182 34.4735 10.6182Z" fill="#EE1C25"/>
<path fill-rule="evenodd" clip-rule="evenodd" d="M30.0803 4.89211C30.2053 4.89211 30.3323 4.86011 30.4483 4.79311L32.5827 3.56077C32.9353 3.35711 33.0563 2.90611 32.8527 2.55311C32.649 2.20044 32.198 2.07944 31.8447 2.28311L29.7107 3.51544C29.358 3.71911 29.237 4.17011 29.4407 4.52311C29.5773 4.75977 29.8253 4.89211 30.0803 4.89211Z" fill="#EE1C25"/>
</svg>
