<svg xmlns="http://www.w3.org/2000/svg" width="234" height="58" viewBox="0 0 234 58"><g><g><g><path d="M57.014 17.01h17.2v5.02H62.874v3.222h10.252V29.9H62.873v3.392H74.35v5.02H56.98V17.01z"/></g><g><path d="M77.39 17.01h5.927v16.111H93.67v5.19H77.39z"/></g><g><path d="M96.224 17.01h17.2v5.02h-11.341v3.222h10.252V29.9h-10.252v3.392h11.478v5.02H96.19V17.01z"/></g><g><path d="M115.3 27.661c0-6.207 4.803-11.091 11.274-11.091 4.36 0 7.085 1.9 8.992 4.511l-4.325 3.358c-1.227-1.526-2.657-2.476-4.7-2.476-2.998 0-5.11 2.51-5.11 5.698 0 3.188 2.112 5.698 5.11 5.698 2.213 0 3.542-1.051 4.836-2.577l4.462 3.154c-2.01 2.781-4.735 4.816-9.47 4.816-6.164 0-11.069-4.68-11.069-11.09z"/></g><g><path d="M143.563 22.2h-6.403v-5.19h18.768v5.19h-6.404v16.11h-5.926V22.2z"/></g><g><path d="M168.606 17.01c3.27 0 5.518.848 6.983 2.273 1.26 1.254 1.907 2.883 1.907 5.053 0 3.257-1.737 5.427-4.394 6.547l5.11 7.428h-6.881l-4.292-6.445h-2.588v6.445h-5.927V17.01zm-.272 10.21c2.01 0 3.167-.984 3.167-2.578 0-1.662-1.226-2.51-3.201-2.51h-3.883v5.121h3.917z"/></g><g><path d="M180.59 17.01h5.96v21.3h-5.96z"/></g><g><path d="M189.07 27.661c0-6.207 4.803-11.091 11.274-11.091 4.36 0 7.085 1.9 8.992 4.511l-4.325 3.358c-1.227-1.526-2.657-2.476-4.7-2.476-2.998 0-5.11 2.51-5.11 5.698 0 3.188 2.112 5.698 5.11 5.698 2.213 0 3.542-1.051 4.836-2.577l4.462 3.154c-2.01 2.781-4.735 4.816-9.47 4.816-6.13 0-11.069-4.68-11.069-11.09z"/></g><g><path d="M218.878 16.87h5.723l9.094 21.436h-6.37l-1.566-3.799h-8.243l-1.533 3.8h-6.233zm2.828 6.953l-2.419 6.072h4.803z"/></g><g><path fill="#f01616" d="M42.777 2.135c1.09 0 1.975.882 1.975 1.967V39.48c0 3.527-2.078 6.817-5.245 8.344L23.43 55.556 7.353 47.823c-3.202-1.527-5.245-4.817-5.245-8.344V4.069c0-1.086.885-1.968 1.975-1.968h38.694zM4.049.1C1.835.1.03 1.898.03 4.102V39.48c0 4.308 2.52 8.31 6.403 10.175l16.963 8.175 16.962-8.175c3.883-1.865 6.404-5.867 6.404-10.175V4.069A3.96 3.96 0 0 0 42.777.1z"/></g><g><path fill="#f01616" d="M38.896 46.642l-15.498 7.462L7.9 46.642a8.004 8.004 0 0 1-4.53-7.19v-34.7c0-.745.613-1.322 1.328-1.322h37.365c.75 0 1.329.61 1.329 1.323V39.45a7.855 7.855 0 0 1-4.496 7.19z"/></g><g><path fill="#fff" d="M38.595 9.023h1.567v5.427h-4.837v-1.322h-1.498v3.73h1.498v-1.322h4.837v5.427h-4.837V19.64h-1.498v3.73h1.498v-1.322h4.837v5.393h-4.837v-1.323h-2.827l-1.43-1.424V19.64h-3.066v11.532h3.475l1.43 1.424v2.951h1.84l1.43 1.425v2.815h1.328v4.85h-5.45v-4.816h1.329V38.33h-3.747v1.458H31v4.817h-5.45v-4.817h1.328v-2.815l1.43-1.425h1.84V33.92H16.694v1.628h1.84l1.43 1.425v2.815h1.328v4.85h-5.415v-4.816h1.328V38.33h-3.747v1.458h1.329v4.85h-5.45v-4.816h1.328v-2.815l1.43-1.425h1.84v-2.95l1.43-1.425h3.475V19.64h-3.066v5.054l-1.43 1.424h-2.827v1.357H6.68v-5.427h4.837v1.39h1.498v-3.73h-1.498v1.322H6.68v-5.426h4.837v1.322h1.498v-3.73h-1.498v1.322H6.68V9.091h4.837v1.323h2.827l1.43 1.425v5.053h6.234v-1.526h-1.84l-1.43-1.424v-2.816h-1.329V6.31h5.45v4.816h-1.328v1.493h3.746v-1.493H23.95V6.31h5.45v4.816H28.07v2.816l-1.43 1.424H24.8v1.526h6.234V11.84l1.43-1.425h2.827V9.091h3.304zm-13.113.61h2.384V7.87h-2.384zm-6.506 0h2.384V7.87h-2.384zm-8.958.985H8.247v2.374h1.771zm0 6.478H8.247v2.374h1.771zm0 6.445H8.247v2.374h1.771zm3.236 17.772H10.87v1.764h2.384zm6.505 0h-2.384v1.764h2.384zm9.708 0h-2.384v1.764h2.384zm6.471 0h-2.384v1.764h2.384zm-10.66-10.107V19.64h-3.68v11.566zm11.546-5.291h1.771V23.54h-1.77zm0-6.445h1.771v-2.374h-1.77zm1.771-8.852h-1.77v2.374h1.77z"/></g></g></g></svg>