<svg width="38" height="38" viewBox="0 0 38 38" fill="none" xmlns="http://www.w3.org/2000/svg">
<path fill-rule="evenodd" clip-rule="evenodd" d="M35.8964 33.8798C35.8158 34.3687 35.5072 34.7649 34.9532 35.0907C32.6612 36.4407 27.2175 36.1041 21.1006 34.3427C25.3238 32.7404 29.1909 30.7132 32.1449 28.5515C34.6884 30.5881 36.1161 32.5475 35.8964 33.8798ZM2.47837 35.0907C1.92437 34.7649 1.6158 34.3687 1.53523 33.8798C1.31552 32.5475 2.74323 30.5881 5.28666 28.5515C8.24066 30.7132 12.1078 32.7404 16.3307 34.3427C10.2138 36.1038 4.77037 36.4401 2.47837 35.0907ZM33.3884 27.5904C35.5821 25.7869 37.7669 23.3624 37.3886 21.0669C37.2044 19.9495 36.3406 18.5049 33.2721 17.9695C32.8615 17.8969 32.4689 18.1729 32.3972 18.5847C32.3255 18.9958 32.6009 19.3875 33.0121 19.4592C34.2235 19.6709 35.7069 20.1638 35.8964 21.3129C36.1109 22.6147 34.7358 24.5587 32.1449 26.6324C31.1861 25.9347 30.1072 25.2338 28.9106 24.5372C28.5498 24.3267 28.0869 24.4489 27.8766 24.8101C27.6666 25.1709 27.7889 25.6338 28.1495 25.8438C29.1335 26.4169 30.0435 27.0038 30.8695 27.5909C28.0418 29.6015 24.1538 31.6589 19.5212 33.3144C19.2524 33.4104 18.9838 33.5035 18.7158 33.5944C18.4478 33.5035 18.1792 33.4104 17.9101 33.3144C13.2775 31.6589 9.38979 29.6015 6.56179 27.5909C7.38836 27.0038 8.29836 26.4167 9.28236 25.8435C9.64321 25.6335 9.76521 25.1704 9.55521 24.8095C9.34493 24.4487 8.88236 24.3264 8.52121 24.5369C7.32464 25.2338 6.2455 25.9347 5.28664 26.6321C2.6955 24.5587 1.32064 22.6147 1.53521 21.3129C1.7255 20.1581 3.22179 19.6652 4.44379 19.4555C4.85522 19.3847 5.1315 18.9935 5.06093 18.5818C4.99007 18.1704 4.59836 17.8941 4.1875 17.9649C1.09722 18.4958 0.228072 19.9449 0.0429293 21.0669C-0.335642 23.3624 1.84922 25.7869 4.04293 27.5904C1.15721 29.9552 -0.268499 32.2364 0.0429293 34.1255C0.196644 35.0578 0.773501 35.8421 1.71121 36.3941C2.8995 37.0938 4.66722 37.4355 6.83921 37.4352C10.0904 37.4352 14.2472 36.6669 18.7158 35.1887C23.1846 36.6672 27.3412 37.4352 30.5924 37.4352C32.7638 37.4352 34.5324 37.0935 35.7204 36.3941C36.6581 35.8421 37.2349 35.0578 37.3886 34.1255C37.6998 32.2364 36.2744 29.9552 33.3884 27.5904Z" fill="#808080"/>
<path fill-rule="evenodd" clip-rule="evenodd" d="M8.45005 6.32113C10.9435 5.98455 12.9232 4.00541 13.2603 1.51227H24.1709C24.5083 4.00541 26.488 5.98455 28.9815 6.32113C28.9849 7.98027 28.9918 12.2771 28.9798 16.01C28.9646 20.8657 20.9035 25.0783 18.7158 25.9911C16.5278 25.0783 8.46691 20.8651 8.45148 16.01C8.43976 12.2771 8.44662 7.98027 8.45005 6.32113ZM18.5978 27.5511C18.6369 27.5571 18.6763 27.5603 18.7158 27.5603C18.7552 27.5603 18.7946 27.5571 18.8338 27.5511C19.0932 27.51 22.0018 26.2286 24.688 24.3451C28.5303 21.6511 30.4832 18.8486 30.492 16.0151C30.5072 11.2923 30.4923 5.66971 30.492 5.61314C30.4912 5.19629 30.1526 4.85914 29.736 4.85914C27.4735 4.85914 25.6326 3.01829 25.6326 0.756C25.6326 0.338571 25.2943 0 24.8766 0H12.5549C12.1372 0 11.7989 0.338571 11.7989 0.756C11.7989 3.01829 9.95805 4.85914 7.69548 4.85914C7.27862 4.85914 6.94033 5.19629 6.93919 5.61314C6.93919 5.66971 6.92433 11.2923 6.93919 16.0151C6.9609 22.8489 18.4812 27.5326 18.5978 27.5511Z" fill="#EE1C25"/>
<path fill-rule="evenodd" clip-rule="evenodd" d="M14.8378 20.731C14.9718 20.8282 15.1272 20.875 15.2812 20.875C15.5152 20.875 15.7461 20.7668 15.8938 20.5628C16.1392 20.2248 16.0638 19.7519 15.7258 19.5068C13.1732 17.655 12.6115 16.3453 12.6104 15.997C12.6044 14.1016 12.6024 11.819 12.6046 9.20618C14.0752 8.35075 15.2858 7.14104 16.1424 5.67104H21.7352C22.1529 5.67104 22.4915 5.33247 22.4915 4.91504C22.4915 4.49732 22.1529 4.15875 21.7352 4.15875H15.6961C15.4146 4.15875 15.1564 4.31532 15.0261 4.56504C14.2349 6.08075 13.0155 7.29904 11.4995 8.08904C11.2498 8.21904 11.0932 8.47704 11.0929 8.75875C11.0901 11.5602 11.0918 13.9973 11.0981 16.0019C11.1021 17.2862 12.4652 19.0099 14.8378 20.731Z" fill="#EE1C25"/>
</svg>
