<svg xmlns="http://www.w3.org/2000/svg" width="32" height="32" viewBox="0 0 32 32"><g><g><g><path fill="gray" d="M12.216 26c8.685 0 13.434-7.311 13.434-13.648 0-.21 0-.418-.01-.617A9.762 9.762 0 0 0 28 9.248a9.47 9.47 0 0 1-2.712.756 4.782 4.782 0 0 0 2.076-2.656c-.911.547-1.92.945-2.997 1.164A4.665 4.665 0 0 0 20.921 7c-2.605 0-4.72 2.149-4.72 4.795 0 .378.04.746.128 1.094-3.927-.199-7.403-2.109-9.733-5.014a4.87 4.87 0 0 0-.636 2.408c0 1.661.832 3.133 2.105 3.989a4.585 4.585 0 0 1-2.135-.597v.06c0 2.327 1.626 4.257 3.79 4.705a4.634 4.634 0 0 1-2.135.08c.597 1.91 2.34 3.292 4.406 3.332A9.396 9.396 0 0 1 5 23.832 13.006 13.006 0 0 0 12.216 26"/></g></g></g></svg>